<?xml version="1.0" encoding="UTF-8"?>
<svg width="1079px" height="260px" viewBox="0 0 1079 260" version="1.1" xmlns="http://www.w3.org/2000/svg" xmlns:xlink="http://www.w3.org/1999/xlink">
    <!-- Generator: sketchtool 41.2 (35397) - http://www.bohemiancoding.com/sketch -->
    <title>E4DAA7EB-9D12-4C43-B1FD-5A7BB079F62C</title>
    <desc>Created with sketchtool.</desc>
    <defs>
        <linearGradient x1="9.90250139%" y1="-1.47694777%" x2="73.2513352%" y2="102.334806%" id="linearGradient-1">
            <stop stop-color="#85BAE5" offset="0%"></stop>
            <stop stop-color="#1B75DD" offset="100%"></stop>
        </linearGradient>
        <linearGradient x1="17.8716329%" y1="94.9956803%" x2="61.2079033%" y2="-6.97067022%" id="linearGradient-2">
            <stop stop-color="#F14668" offset="0%"></stop>
            <stop stop-color="#FF8392" offset="100%"></stop>
        </linearGradient>
    </defs>
    <g id="Symbols" stroke="none" stroke-width="1" fill="none" fill-rule="evenodd">
        <g id="Combined-Shape-Copy">
            <g id="Group-2">
                <path d="M24.4134056,130.745056 C17.0317079,142.596791 8.91583776,158.005201 0,177.831923 C30.2487589,190.69601 67.0673839,205.592993 83.8228239,164.202768 C86.2751177,158.147795 88.2825768,150.9015 89.7881712,142.278081 C90.056787,140.733711 90.4022812,137.210856 90.1995952,135.623332 C99.311734,109.319795 93.2163866,65.0634691 16.2711884,1 C16.6349349,59.5240276 17.6104084,103.068072 24.4134056,130.745056 Z" id="Combined-Shape-Copy" fill="url(#linearGradient-1)"></path>
                <path d="M156.279207,177.136205 C155.17301,205.367599 140.884937,241.546542 133.504031,258.248723 C84.1958165,218.978832 77.0100253,190.179454 82.61038,170.943437 C82.3833588,172.788326 82.1137255,176.000287 82.3673831,179.632466 C82.1699483,176.108973 82.4559825,172.979434 82.7177861,171.089837 C82.8008647,170.489472 82.898833,169.899614 83.0108143,169.320142 C82.7562759,170.040483 82.519346,170.774861 82.3016951,171.523323 C82.4271613,170.485015 82.5412214,169.88389 82.5412214,169.88389 C82.8263719,167.796345 83.1685524,165.774377 83.522139,163.807057 C84.9821092,155.64268 86.9895683,148.352667 89.4874862,141.87144 C112.265304,82.8846318 175.865258,91.059939 239.944265,109.94621 C204.890625,141.642894 177.575688,163.087873 156.279207,177.136199 Z" id="Combined-Shape-Copy-2" fill="url(#linearGradient-2)"></path>
                <path d="M260,96.6800008 L260,197.480017 L301.400007,197.480017 C324.368011,197.480017 339.128013,188.768016 339.128013,168.680013 C339.128013,157.088011 330.848012,148.376009 321.27201,145.568009 C330.128011,143.120008 336.824013,134.480007 336.824013,124.112005 C336.824013,104.096002 320.62401,96.6800008 299.096006,96.6800008 L260,96.6800008 Z M300.680007,154.28001 C313.496009,154.28001 322.06401,156.728011 322.06401,168.104012 C322.06401,179.768014 313.496009,182.216015 300.680007,182.216015 L276.272003,182.216015 L276.272003,154.28001 L300.680007,154.28001 Z M298.448006,111.944003 C309.752008,111.944003 319.76001,113.744004 319.76001,125.336005 C319.76001,137.360007 309.896008,139.088008 298.592006,139.088008 L276.272003,139.088008 L276.272003,111.944003 L298.448006,111.944003 Z M421.384011,128.504006 L406.336008,128.504006 L406.336008,136.856007 C401.584007,130.736006 394.456006,126.704006 384.664005,126.704006 C365.368001,126.704006 350.175999,141.896008 350.175999,162.992012 C350.175999,184.088015 365.368001,199.280018 384.664005,199.280018 C394.456006,199.280018 401.584007,195.320017 406.336008,189.200016 L406.336008,197.480017 L421.384011,197.480017 L421.384011,128.504006 Z M386.464005,140.888008 C398.920007,140.888008 407.272008,150.39201 407.272008,162.992012 C407.272008,175.592014 398.920007,185.096015 386.464005,185.096015 C373.504003,185.096015 365.656001,175.088014 365.656001,162.992012 C365.656001,150.89601 373.504003,140.888008 386.464005,140.888008 L386.464005,140.888008 Z M471.144006,126.704006 C464.088004,126.704006 455.520003,128.792006 449.976002,136.928007 L449.976002,128.504006 L435,128.504006 L435,197.480017 L450.120002,197.480017 L450.120002,159.248011 C450.120002,147.440009 458.256004,141.032008 467.976005,141.032008 C478.056007,141.032008 484.032008,147.512009 484.032008,159.104011 L484.032008,197.480017 L499.15201,197.480017 L499.15201,154.13601 C499.15201,138.008008 487.560008,126.704006 471.144006,126.704006 L471.144006,126.704006 Z M548.192006,126.704006 C541.136004,126.704006 532.568003,128.792006 527.024002,136.928007 L527.024002,128.504006 L512.048,128.504006 L512.048,197.480017 L527.168002,197.480017 L527.168002,159.248011 C527.168002,147.440009 535.304004,141.032008 545.024005,141.032008 C555.104007,141.032008 561.080008,147.512009 561.080008,159.104011 L561.080008,197.480017 L576.20001,197.480017 L576.20001,154.13601 C576.20001,138.008008 564.608008,126.704006 548.192006,126.704006 L548.192006,126.704006 Z M621.472005,126.704006 C601.168001,126.704006 587.127999,141.392008 587.127999,162.992012 C587.127999,184.880015 601.744001,199.280018 622.408005,199.280018 C632.848006,199.280018 642.352008,196.760017 650.776009,189.560016 L643.288008,178.832014 C637.600007,183.368015 630.256006,186.104015 623.344005,186.104015 C613.552003,186.104015 604.840002,180.920015 602.824001,168.536013 L653.80001,168.536013 C653.94401,166.808012 654.08801,164.864012 654.08801,162.920012 C654.01601,141.392008 640.768008,126.704006 621.472005,126.704006 L621.472005,126.704006 Z M621.184004,140.096008 C630.760006,140.096008 637.024007,146.360009 638.680007,157.088011 L602.896001,157.088011 C604.480002,147.008009 610.456003,140.096008 621.184004,140.096008 L621.184004,140.096008 Z M700.656005,126.704006 C692.232004,126.704006 685.176003,129.728006 680.640002,136.280007 L680.640002,128.504006 L665.736,128.504006 L665.736,197.480017 L680.784002,197.480017 L680.784002,159.536011 C680.784002,147.800009 687.624003,141.032008 697.200005,141.032008 C700.872005,141.032008 705.480006,141.896008 708.648007,143.552008 L712.248007,128.648006 C708.792007,127.280006 705.264006,126.704006 700.656005,126.704006 L700.656005,126.704006 Z M775.864007,128.504006 L752.248003,128.504006 L752.248003,116.840004 C752.248003,110.000003 755.416004,106.184002 761.248005,106.184002 C765.784005,106.184002 770.608006,107.840003 774.136007,109.856003 L779.464008,97.1840008 C774.352007,94.1600004 768.304006,92 760.240004,92 C744.112002,92 737.128001,103.016002 737.128001,116.840004 L737.128001,128.504006 L723.303998,128.504006 L723.303998,142.184008 L737.128001,142.184008 L737.128001,197.480017 L752.248003,197.480017 L752.248003,142.184008 L775.864007,142.184008 L775.864007,128.504006 Z M806.472002,93.8000003 L791.352,93.8000003 L791.352,197.480017 L806.472002,197.480017 L806.472002,93.8000003 Z M855.200005,126.704006 C833.888001,126.704006 818.119999,142.328008 818.119999,162.992012 C818.119999,183.656015 833.888001,199.280018 855.200005,199.280018 C876.512008,199.280018 892.352011,183.656015 892.352011,162.992012 C892.352011,142.328008 876.512008,126.704006 855.200005,126.704006 L855.200005,126.704006 Z M855.200005,140.888008 C867.512007,140.888008 876.872009,149.96001 876.872009,162.992012 C876.872009,176.024014 867.512007,185.096015 855.200005,185.096015 C842.888003,185.096015 833.600001,176.024014 833.600001,162.992012 C833.600001,149.96001 842.888003,140.888008 855.200005,140.888008 L855.200005,140.888008 Z M962.024009,128.504006 L944.960006,128.504006 L927.968003,180.920015 L911.768001,128.504006 L895.711998,128.504006 L918.536002,197.480017 L936.248005,197.480017 L953.312008,145.496009 L970.37601,197.480017 L988.376013,197.480017 L1011.20002,128.504006 L995.504015,128.504006 L979.232012,181.208015 L962.024009,128.504006 Z" id="Bannerflow" fill="#F7F7F7"></path>
            </g>
        </g>
    </g>
</svg>